HIERARCHY
ROOT Hips
{
	OFFSET 0.000000 88.474243 0.000000
	CHANNELS 6 Xposition Yposition Zposition Zrotation Yrotation Xrotation 
	JOINT Hips_Spine
	{
		OFFSET 0.000000 0.000000 0.000000
		CHANNELS 3 Zrotation Yrotation Xrotation
		JOINT Spine
		{
			OFFSET 0.005100 8.711998 -0.691000
			CHANNELS 3 Zrotation Yrotation Xrotation
			JOINT Spine1
			{
				OFFSET -0.009200 8.660301 -1.275000
				CHANNELS 3 Zrotation Yrotation Xrotation
				JOINT Spine2
				{
					OFFSET 0.006300 9.852501 -1.857000
					CHANNELS 3 Zrotation Yrotation Xrotation
					JOINT Spine2_Neck
					{
						OFFSET 0.000000 0.000000 0.000000
						CHANNELS 3 Zrotation Yrotation Xrotation
						JOINT Neck
						{
							OFFSET 0.016300 11.420799 -0.263300
							CHANNELS 3 Zrotation Yrotation Xrotation
							End Site #name: Head
							{
								OFFSET -0.019200 9.262405 2.362500
							}
						}
					}
					JOINT Spine2_LeftShoulder
					{
						OFFSET 0.000000 0.000000 0.000000
						CHANNELS 3 Zrotation Yrotation Xrotation
						JOINT LeftShoulder
						{
							OFFSET 5.616900 6.732201 -0.345700
							CHANNELS 3 Zrotation Yrotation Xrotation
							JOINT LeftArm
							{
								OFFSET 10.664888 -0.183372 -2.440700
								CHANNELS 3 Zrotation Yrotation Xrotation
								JOINT LeftForeArm
								{
									OFFSET 27.459126 0.000000 0.000000
									CHANNELS 3 Zrotation Yrotation Xrotation
									End Site #name: LeftHand
									{
										OFFSET 21.306858 0.000000 0.000000
									}
								}
							}
						}
					}
					JOINT Spine2_RightShoulder
					{
						OFFSET 0.000000 0.000000 0.000000
						CHANNELS 3 Zrotation Yrotation Xrotation
						JOINT RightShoulder
						{
							OFFSET -5.580300 6.737503 -0.344400
							CHANNELS 3 Zrotation Yrotation Xrotation
							JOINT RightArm
							{
								OFFSET -10.679335 -0.188484 -2.383900
								CHANNELS 3 Zrotation Yrotation Xrotation
								JOINT RightForeArm
								{
									OFFSET -27.503529 0.000000 0.000000
									CHANNELS 3 Zrotation Yrotation Xrotation
									End Site #name: RightHand
									{
										OFFSET -21.306808 0.000000 0.000000
									}
								}
							}
						}
					}
				}
			}
		}
	}
	JOINT Hips_LeftUpLeg
	{
		OFFSET 0.000000 0.000000 0.000000
		CHANNELS 3 Zrotation Yrotation Xrotation
		JOINT LeftUpLeg
		{
			OFFSET 6.857700 -6.739601 0.312100
			CHANNELS 3 Zrotation Yrotation Xrotation
			JOINT LeftLeg
			{
				OFFSET -0.367590 -34.731552 -4.572400
				CHANNELS 3 Zrotation Yrotation Xrotation
				End Site #name: LeftFoot
				{
					OFFSET 0.367590 -34.656704 -6.067400
				}
			}
		}
	}
	JOINT Hips_RightUpLeg
	{
		OFFSET 0.000000 0.000000 0.000000
		CHANNELS 3 Zrotation Yrotation Xrotation
		JOINT RightUpLeg
		{
			OFFSET -6.876100 -6.733299 0.301000
			CHANNELS 3 Zrotation Yrotation Xrotation
			JOINT RightLeg
			{
				OFFSET 0.347353 -34.795158 -4.515900
				CHANNELS 3 Zrotation Yrotation Xrotation
				End Site #name: RightFoot
				{
					OFFSET -0.347353 -34.589367 -6.070300
				}
			}
		}
	}
}
MOTION
Frames: 16
Frame Time: 0.041667
0.041964 -0.067220 -0.086874 -10.120988 60.903432 -8.236095 -0.000000 -0.000000 0.000000 -3.052574 -0.303250 0.021729 2.840415 0.249715 3.137428 0.000000 0.000000 0.000000 2.833433 -0.563370 -0.226918 -1.439048 -5.085420 -3.380515 1.612097 0.849650 2.335534 -7.885311 -4.208283 1.354595 -78.190976 -0.722777 -0.766009 -0.072427 -18.764117 0.901359 2.035950 -0.074877 2.206031 14.891997 12.411502 3.826245 51.938265 4.714777 -13.163812 -54.089300 87.184380 -49.740547 0.000000 -0.000000 0.000000 -2.282512 15.618479 -19.550429 -6.534047 -21.783715 5.943635 -0.000000 -0.000000 -0.000000 -2.588039 -16.522959 -9.822802 -9.327207 -8.431643 16.764767 
0.044487 -0.193839 -0.036048 -7.986736 58.128974 -4.256966 -0.000000 -0.000000 0.000000 -4.908870 -1.839169 0.858548 4.090790 0.292005 2.823284 0.000000 0.000000 0.000000 3.542767 -0.454168 1.225784 -0.368540 -9.989747 -3.711969 2.541110 0.607860 1.876239 -5.677520 -6.837949 1.661232 -82.230143 -10.262357 -7.464009 -1.296825 -11.854902 1.776851 4.137883 -0.416917 2.766451 17.528368 12.304332 3.171929 56.279520 3.351820 -10.520823 -9.416482 80.161116 -4.831852 0.000000 -0.000000 -0.000000 -0.879875 17.059844 -19.282516 -5.762867 -18.968063 4.173427 -0.000000 0.000000 -0.000000 -3.031912 -13.418339 -9.820307 -6.122999 -4.560930 16.792972 
0.129477 -0.251268 -0.016213 -8.933611 59.701942 -4.943965 -0.000000 -0.000000 0.000000 -5.435995 -3.241948 1.452589 5.117019 -0.066598 3.250660 0.000000 0.000000 0.000000 4.745508 -0.853176 2.294163 -0.305421 -15.148545 -3.678397 3.066477 0.476920 1.758727 -4.458018 -6.932386 1.216043 -84.522970 -10.422588 -13.637478 -1.103964 -2.880682 1.651239 5.186998 -0.592627 2.963369 17.448624 13.340341 3.463343 56.588468 4.149887 -8.835242 -16.809831 84.070686 -11.922687 0.000000 -0.000000 -0.000000 0.200222 17.920516 -17.967885 -5.560509 -18.959460 4.300168 -0.000000 0.000000 -0.000000 -3.241233 -17.357307 -8.211784 -4.505680 -2.824847 16.863735 
0.202355 -0.323551 -0.033672 -10.699517 59.994015 -7.551741 -0.000000 -0.000000 0.000000 -4.775428 -5.048721 2.368817 5.484486 -0.541091 3.758720 0.000000 0.000000 0.000000 5.179967 -1.329825 3.092913 -0.689494 -18.000366 -3.254557 3.323007 0.152460 1.715121 -3.654687 -4.964067 -0.375559 -86.785875 -12.780286 -15.051510 -0.989447 2.723258 1.702518 5.650434 -1.278576 3.214383 15.917140 12.934902 3.305942 57.965497 6.459367 -8.944045 -163.580044 84.773160 -158.591008 0.000000 -0.000000 -0.000000 0.669468 18.547980 -16.459757 -5.012854 -19.947222 3.525785 -0.000000 0.000000 -0.000000 -3.120008 -22.368272 -7.245450 -4.024252 -0.943766 16.850488 
0.262623 -0.389836 -0.084458 -11.456301 59.401167 -8.858723 -0.000000 -0.000000 0.000000 -3.185057 -5.802659 2.478572 5.541386 -0.822246 4.175053 0.000000 0.000000 0.000000 5.333503 -1.620271 4.051740 -0.951486 -19.326371 -2.281932 3.339423 -0.113383 1.972820 -3.333062 -3.733191 -1.413066 -88.199053 -14.700305 -14.894996 -0.807534 4.825500 2.200427 5.736767 -1.691345 3.585222 14.360269 12.562506 2.954690 59.419445 7.711962 -8.981448 -175.603168 75.845936 -170.800658 0.000000 -0.000000 -0.000000 0.946169 18.977218 -15.229276 -4.701116 -21.502224 2.653565 -0.000000 0.000000 -0.000000 -2.888053 -25.422931 -6.578325 -4.675543 -0.120179 16.769721 
0.334361 -0.446423 -0.145686 -11.525566 58.396701 -8.975265 -0.000000 -0.000000 0.000000 -1.100671 -5.514507 2.263496 5.372907 -0.937322 4.436586 0.000000 0.000000 0.000000 5.269538 -1.693968 4.840921 -1.161887 -19.789860 -1.560015 3.197993 -0.231057 2.577302 -3.514576 -2.946917 -1.793373 -88.848499 -15.721031 -13.717127 -0.699008 5.129454 2.931681 5.618247 -1.864546 4.065509 13.810456 12.728753 2.598810 60.469247 7.902226 -8.297364 -177.150735 71.591415 -172.496557 0.000000 -0.000000 -0.000000 1.058438 18.924219 -14.702519 -4.648777 -22.742052 2.141541 -0.000000 0.000000 -0.000000 -2.783319 -27.266280 -6.138607 -5.825946 -0.620282 16.380033 
0.415154 -0.497101 -0.206534 -10.986281 56.952269 -7.999545 -0.000000 -0.000000 0.000000 0.814408 -4.823661 2.104183 5.124171 -0.916220 4.816842 0.000000 0.000000 0.000000 5.068404 -1.633757 5.425444 -0.718501 -19.989661 -1.474135 3.001205 -0.191869 3.259536 -3.924132 -2.032631 -2.004250 -89.069384 -16.196815 -12.308735 -0.381333 5.034909 3.789872 5.378051 -1.893090 4.470150 13.923563 13.329252 2.414522 60.949177 6.484529 -7.305060 -177.021951 70.981733 -172.467907 0.000000 -0.000000 -0.000000 1.072796 18.615155 -14.548964 -4.607583 -23.858209 1.547459 -0.000000 0.000000 -0.000000 -2.842300 -29.194648 -5.903075 -7.172815 -2.028926 16.046588 
0.497045 -0.546817 -0.259388 -10.436464 55.872413 -6.864426 -0.000000 -0.000000 0.000000 1.958638 -4.144915 2.200595 4.895179 -0.851429 5.208701 0.000000 0.000000 0.000000 4.805631 -1.543337 5.646159 -0.124952 -20.367693 -1.581643 2.794861 -0.077061 3.876956 -4.257751 -1.240994 -2.109365 -89.269123 -16.457413 -11.423237 -0.101541 4.907165 4.310727 5.069325 -1.847548 4.790853 14.118015 14.002984 2.446276 60.917773 4.571910 -6.687383 -176.158729 72.189134 -171.662645 0.000000 -0.000000 -0.000000 1.023803 18.148949 -14.540193 -4.481531 -24.737424 0.826412 -0.000000 0.000000 -0.000000 -2.920387 -31.493524 -5.972143 -8.369978 -3.324865 16.114072 
0.577404 -0.595002 -0.303578 -10.153342 55.618718 -6.069299 -0.000000 -0.000000 0.000000 2.645833 -3.556442 2.219446 4.691334 -0.806964 5.535827 0.000000 0.000000 0.000000 4.576147 -1.473719 5.740730 0.295892 -20.848239 -1.725189 2.600813 -0.000521 4.330689 -4.268813 -0.729788 -2.179902 -89.469725 -16.642559 -11.185587 0.023884 4.662379 4.482990 4.750479 -1.824745 5.014320 14.136817 14.675277 2.538621 60.702261 2.649759 -6.200243 -175.007286 73.886045 -170.590302 0.000000 0.000000 -0.000000 0.989797 17.762866 -14.531546 -4.306940 -25.344839 0.207286 -0.000000 0.000000 -0.000000 -2.909935 -33.519798 -6.236712 -9.229791 -4.357883 16.421049 
0.653415 -0.640162 -0.345810 -10.115862 55.873978 -5.735866 -0.000000 -0.000000 0.000000 2.925838 -3.311400 1.992904 4.538332 -0.796125 5.777549 0.000000 0.000000 0.000000 4.416121 -1.438481 5.842705 0.671021 -21.431584 -1.885191 2.472501 0.048902 4.666176 -4.038811 -0.457077 -2.221865 -89.898957 -16.743673 -11.273791 0.058362 4.307749 4.455691 4.533838 -1.836566 5.176025 14.049807 15.302382 2.613950 60.544057 1.166577 -5.744263 -173.872935 75.176281 -169.508814 0.000000 0.000000 -0.000000 1.023102 17.540421 -14.418373 -4.135970 -25.708770 -0.221419 -0.000000 0.000000 -0.000000 -2.870914 -34.803582 -6.534445 -9.703388 -5.115642 16.826647 
0.726707 -0.683766 -0.386792 -10.219634 56.328565 -5.721006 0.000000 -0.000000 0.000000 3.074254 -3.155461 2.013433 4.490874 -0.803012 6.003405 0.000000 0.000000 0.000000 4.347948 -1.424723 5.961666 1.035552 -22.087558 -1.996331 2.420820 0.085022 4.973211 -3.700534 -0.368858 -2.219813 -90.390807 -16.756182 -11.271290 0.088695 4.249177 4.309353 4.442503 -1.877577 5.318766 13.837547 15.755410 2.637330 60.415576 0.192904 -4.884649 -173.562111 75.029308 -169.227440 0.000000 0.000000 -0.000000 1.088362 17.451168 -14.213982 -3.985564 -25.928921 -0.528646 -0.000000 0.000000 -0.000000 -2.836331 -35.364037 -6.752698 -9.971208 -5.759053 17.193436 
0.798268 -0.725853 -0.428769 -10.380062 56.820434 -5.861417 0.000000 -0.000000 0.000000 3.143008 -3.072347 2.199374 4.504269 -0.825083 6.232158 0.000000 0.000000 0.000000 4.353609 -1.438138 6.104921 1.397754 -22.647675 -2.018394 2.416805 0.108736 5.259114 -3.343995 -0.351998 -2.229109 -90.822865 -16.718622 -10.975245 0.103521 4.306224 4.067554 4.436745 -1.927818 5.474548 13.491829 16.086427 2.587411 60.296487 -0.141752 -4.098027 -174.067894 73.538594 -169.737074 0.000000 0.000000 -0.000000 1.163017 17.453301 -13.979823 -3.859493 -26.093589 -0.756599 -0.000000 0.000000 -0.000000 -2.811616 -35.390014 -6.899096 -10.048768 -6.299140 17.473279 
0.867851 -0.766102 -0.474077 -10.546471 57.182794 -6.057886 0.000000 -0.000000 0.000000 3.168717 -3.082034 2.372199 4.551572 -0.868182 6.454453 0.000000 0.000000 0.000000 4.397749 -1.472248 6.257417 1.724632 -23.055124 -2.022878 2.433688 0.112592 5.521978 -2.998082 -0.390615 -2.250896 -91.103019 -16.641430 -10.617955 0.100838 4.001418 3.803321 4.474006 -1.984902 5.650127 13.093501 16.372162 2.510157 60.320123 0.003400 -3.349332 -174.929310 71.298005 -170.578916 0.000000 0.000000 -0.000000 1.240793 17.516996 -13.744968 -3.750819 -26.257905 -0.932423 -0.000000 0.000000 -0.000000 -2.795793 -35.074995 -6.961962 -9.980246 -6.730812 17.632005 
0.935346 -0.804811 -0.522779 -10.682760 57.374034 -6.239297 0.000000 -0.000000 0.000000 3.206379 -3.169114 2.556120 4.603988 -0.927649 6.668993 0.000000 0.000000 0.000000 4.445848 -1.514689 6.407624 1.972438 -23.289238 -2.012694 2.454882 0.102026 5.751799 -2.690402 -0.450006 -2.272520 -91.225498 -16.517522 -10.416814 0.106325 3.421184 3.570115 4.518093 -2.054596 5.821297 12.711451 16.642366 2.416568 60.450307 0.417864 -2.828125 -175.768318 68.746429 -171.381740 0.000000 0.000000 -0.000000 1.314578 17.619283 -13.516377 -3.649236 -26.456525 -1.100645 0.000000 0.000000 -0.000000 -2.778711 -34.543124 -6.982923 -9.829628 -7.063401 17.703459 
1.000479 -0.842367 -0.574982 -10.787702 57.473168 -6.386881 0.000000 -0.000000 0.000000 3.238278 -3.385204 2.636263 4.641962 -0.994504 6.866379 0.000000 0.000000 0.000000 4.487056 -1.568488 6.554171 2.152945 -23.410317 -1.991736 2.469489 0.077350 5.951620 -2.429975 -0.537512 -2.275448 -91.320228 -16.428398 -10.277380 0.128980 2.879801 3.389049 4.554222 -2.130023 5.978352 12.428580 16.917259 2.342288 60.646181 0.950652 -2.476885 -176.421808 66.478739 -171.975071 0.000000 0.000000 -0.000000 1.382575 17.738769 -13.298058 -3.547839 -26.687017 -1.278805 0.000000 0.000000 -0.000000 -2.760518 -33.945823 -6.981129 -9.632140 -7.304167 17.722881 
1.062640 -0.879747 -0.630898 -10.872007 57.541607 -6.504675 0.000000 -0.000000 0.000000 3.297510 -3.620030 2.698676 4.655725 -1.062690 7.048156 0.000000 0.000000 0.000000 4.512920 -1.620457 6.684971 2.280614 -23.464822 -1.987242 2.473020 0.043603 6.126331 -2.213823 -0.602442 -2.280965 -91.406683 -16.382111 -10.197132 0.153713 2.404026 3.254690 4.568365 -2.210331 6.121409 12.252167 17.116659 2.269982 60.873858 1.458765 -2.175449 -176.990522 64.220833 -172.493062 0.000000 0.000000 -0.000000 1.443395 17.860853 -13.109524 -3.451394 -26.920668 -1.438702 0.000000 0.000000 -0.000000 -2.743810 -33.384493 -6.961074 -9.426768 -7.469981 17.703954 
